<svg width="90" height="80" viewBox="0 0 90 80" fill="none" xmlns="http://www.w3.org/2000/svg">
<path d="M11.25 55H5.625V10C5.62649 8.67432 6.2196 7.40332 7.27417 6.46593C8.32874 5.52853 9.75861 5.00132 11.25 5H61.875V10H11.25V55ZM59.0625 42.5C60.7313 42.5 62.3626 42.0601 63.7501 41.236C65.1377 40.4119 66.2191 39.2406 66.8577 37.8701C67.4963 36.4997 67.6634 34.9917 67.3379 33.5368C67.0123 32.082 66.2087 30.7456 65.0287 29.6967C63.8487 28.6478 62.3453 27.9335 60.7086 27.6441C59.0719 27.3547 57.3754 27.5032 55.8336 28.0709C54.2919 28.6386 52.9741 29.5999 52.047 30.8332C51.1199 32.0666 50.625 33.5166 50.625 35C50.6272 36.9885 51.5169 38.895 53.0988 40.3011C54.6806 41.7072 56.8254 42.498 59.0625 42.5ZM59.0625 32.5C59.6188 32.5 60.1625 32.6466 60.625 32.9213C61.0876 33.196 61.448 33.5865 61.6609 34.0433C61.8738 34.5001 61.9295 35.0028 61.821 35.4877C61.7124 35.9727 61.4446 36.4181 61.0512 36.7678C60.6579 37.1174 60.1568 37.3555 59.6112 37.452C59.0656 37.5484 58.5001 37.4989 57.9862 37.3097C57.4723 37.1205 57.033 36.8 56.724 36.3889C56.4149 35.9778 56.25 35.4945 56.25 35C56.25 34.337 56.5463 33.7011 57.0738 33.2322C57.6012 32.7634 58.3166 32.5 59.0625 32.5Z" fill="#515151" fill-opacity="0.6"/>
<path d="M77.9624 17.5H24.5249C23.0335 17.5013 21.6036 18.0285 20.5491 18.9659C19.4945 19.9033 18.9014 21.1743 18.8999 22.5V70C18.9014 71.3257 19.4945 72.5967 20.5491 73.5341C21.6036 74.4715 23.0335 74.9987 24.5249 75H77.9624C79.4538 74.9987 80.8837 74.4715 81.9382 73.5341C82.9928 72.5967 83.5859 71.3257 83.5874 70V22.5C83.5859 21.1743 82.9928 19.9033 81.9382 18.9659C80.8837 18.0285 79.4538 17.5013 77.9624 17.5ZM77.9624 70H24.5249V55L35.7749 45.0075L51.4855 58.9725C52.5404 59.9099 53.9709 60.4364 55.4624 60.4364C56.9539 60.4364 58.3844 59.9099 59.4393 58.9725L63.8999 55.0075L77.9624 67.5V70ZM77.9624 60.43L67.8768 51.465C66.8219 50.5276 65.3914 50.0011 63.8999 50.0011C62.4084 50.0011 60.9779 50.5276 59.923 51.465L55.4624 55.43L39.7518 41.465C38.6969 40.5276 37.2665 40.0011 35.7749 40.0011C34.2834 40.0011 32.8529 40.5276 31.798 41.465L24.5249 47.93V22.5H77.9624V60.43Z" fill="#515151" fill-opacity="0.6"/>
</svg>
